<?xml version="1.0" encoding="utf-8"?>
<!-- Generator: Adobe Illustrator 17.0.0, SVG Export Plug-In . SVG Version: 6.00 Build 0)  -->
<!DOCTYPE svg PUBLIC "-//W3C//DTD SVG 1.1//EN" "http://www.w3.org/Graphics/SVG/1.1/DTD/svg11.dtd">
<svg version="1.1" id="Calque_1" xmlns="http://www.w3.org/2000/svg" xmlns:xlink="http://www.w3.org/1999/xlink" x="0px" y="0px"
	 width="653.338px" height="911.71px" viewBox="33.894 1.797 653.338 911.71" enable-background="new 33.894 1.797 653.338 911.71"
	 xml:space="preserve">
<g>
	<path d="M33.894,1.797h313.824c100.989,0,182.822,28.418,245.499,85.234s94.015,132.116,94.015,225.9
		s-32.702,168.181-98.069,223.191c-65.386,55.01-145.874,82.505-241.445,82.505H242.213v294.879H33.894V1.797z M242.213,453.598
		h102.796c42.386-5.399,74.839-21.846,97.396-49.361c22.538-27.515,33.817-59.525,33.817-96.051c0-36.507-11.74-68.306-35.181-95.36
		c-23.441-27.053-55.452-41.925-96.032-44.634H242.213V453.598z"/>
</g>
</svg>
