<?xml version="1.0" encoding="utf-8"?>
<!-- Generator: Adobe Illustrator 17.0.0, SVG Export Plug-In . SVG Version: 6.00 Build 0)  -->
<!DOCTYPE svg PUBLIC "-//W3C//DTD SVG 1.1//EN" "http://www.w3.org/Graphics/SVG/1.1/DTD/svg11.dtd">
<svg version="1.1" id="Calque_1" xmlns="http://www.w3.org/2000/svg" xmlns:xlink="http://www.w3.org/1999/xlink" x="0px" y="0px"
	 width="594.211px" height="916.012px" viewBox="32.4 0 594.211 916.012" enable-background="new 32.4 0 594.211 916.012"
	 xml:space="preserve">
<g>
	<path d="M362.206,174.917c-34.71,0-61.208,7.132-79.454,21.376c-18.247,14.245-27.37,32.491-27.37,54.74
		c0,22.268,11.115,42.07,33.383,59.425c22.249,17.374,51.402,34.065,87.459,50.074c36.057,16.027,63.218,28.717,81.465,38.049
		c18.247,9.351,39.149,22.268,62.744,38.731c23.595,16.464,42.07,33.61,55.423,51.402c33.838,44.516,50.757,96.146,50.757,154.907
		c0,81.01-29.836,146.656-89.469,196.958c-59.652,50.302-140.662,75.433-243.029,75.433c-102.386,0-186.943-18.683-253.708-56.087
		V652.953c80.991,58.761,167.349,88.142,259.057,88.142c31.145,0,56.959-8.232,77.444-24.696
		c20.466-16.464,30.708-38.068,30.708-64.774c0-19.574-4.913-34.274-14.7-44.061c-9.787-9.787-18.019-17.147-24.696-22.04
		c-6.677-4.894-16.483-10.679-29.381-17.355s-23.804-12.234-32.7-16.691c-27.617-13.353-54.759-25.815-81.465-37.385
		c-57.87-26.706-104.378-59.634-139.543-98.801S32.4,320.929,32.4,249.706c0-71.204,28.47-130.629,85.448-178.256
		S250.924,0,346.178,0s175.373,15.136,240.374,45.389v192.292C514.438,195.838,439.65,174.917,362.206,174.917z"/>
</g>
</svg>
