<?xml version="1.0" encoding="utf-8"?>
<!-- Generator: Adobe Illustrator 17.0.0, SVG Export Plug-In . SVG Version: 6.00 Build 0)  -->
<!DOCTYPE svg PUBLIC "-//W3C//DTD SVG 1.1//EN" "http://www.w3.org/Graphics/SVG/1.1/DTD/svg11.dtd">
<svg version="1.1" id="Calque_1" xmlns="http://www.w3.org/2000/svg" xmlns:xlink="http://www.w3.org/1999/xlink" x="0px" y="0px"
	 width="546.25px" height="777.406px" viewBox="0 0 546.25 777.406" enable-background="new 0 0 546.25 777.406"
	 xml:space="preserve">
<g>
	<path d="M546.25,556.609c0,65.938-25.5,119.219-76.484,159.844c-50.984,40.64-117.688,60.953-200.094,60.953
		c-82.422,0-147.969-19.359-196.656-58.078C24.328,680.609,0,628.297,0,562.359c0-81.266,36.406-139.922,109.25-175.953
		C44.078,348.844,11.5,294.797,11.5,224.266S35.828,98.719,84.516,59.234S195.875,0,272.547,0
		c76.656,0,139.328,18.797,188.016,56.359s73.031,92.188,73.031,163.875s-31.438,125.922-94.297,162.719
		C510.594,415.922,546.25,473.813,546.25,556.609z M167.906,556.031c0,24.922,8.234,45.813,24.719,62.672
		C209.094,635.578,235.156,644,270.813,644s62.484-8.625,80.5-25.875s27.031-38.906,27.031-64.969s-9.391-47.906-28.172-65.547
		c-18.781-17.625-45.234-26.453-79.344-26.453c-34.125,0-59.797,9.594-77.047,28.75
		C176.531,509.078,167.906,531.125,167.906,556.031z M270.25,133.406c-30.672,0-53.297,8.625-67.859,25.875
		s-21.844,39.297-21.844,66.125c0,26.844,8.813,48.313,26.453,64.406c17.625,16.094,39.672,24.141,66.125,24.141
		c26.438,0,48.484-8.047,66.125-24.141c17.625-16.094,26.453-38.719,26.453-67.859C365.703,162.922,333.875,133.406,270.25,133.406z
		"/>
</g>
</svg>
