<?xml version="1.0" encoding="utf-8"?>
<!-- Generator: Adobe Illustrator 17.0.0, SVG Export Plug-In . SVG Version: 6.00 Build 0)  -->
<!DOCTYPE svg PUBLIC "-//W3C//DTD SVG 1.1//EN" "http://www.w3.org/Graphics/SVG/1.1/DTD/svg11.dtd">
<svg version="1.1" id="Calque_1" xmlns="http://www.w3.org/2000/svg" xmlns:xlink="http://www.w3.org/1999/xlink" x="0px" y="0px"
	 width="563.203px" height="754.594px" viewBox="175.997 -5.5 563.203 754.594"
	 enable-background="new 175.997 -5.5 563.203 754.594" xml:space="preserve">
<path id="number" d="M457.044,743.594c-86.531,0-151.797-33.547-195.797-100.641s-66-157.672-66-271.703s22-204.406,66-271.141
	S370.513,0,457.044,0s151.969,33.375,196.344,100.109s66.563,156.938,66.563,270.594c0,113.672-22.188,204.234-66.563,271.703
	S543.575,743.594,457.044,743.594z M457.591,143c-65.625,0-98.438,76.266-98.438,228.797s32.813,228.797,98.438,228.797
	s98.453-76.266,98.453-228.797S523.216,143,457.591,143z"/>
<path id="number-0" d="M457.044,743.594c-86.531,0-151.797-33.547-195.797-100.641s-66-157.672-66-271.703s22-204.406,66-271.141
	S370.513,0,457.044,0s151.969,33.375,196.344,100.109s66.563,156.938,66.563,270.594c0,113.672-22.188,204.234-66.563,271.703
	S543.575,743.594,457.044,743.594z M457.591,143c-65.625,0-98.438,76.266-98.438,228.797s32.813,228.797,98.438,228.797
	s98.453-76.266,98.453-228.797S523.216,143,457.591,143z"/>
<path id="number-1" d="M628.099,12.094V731.5h-159.5V184.797l-181.5,108.906V129.797L489.505,12.094H628.099z"/>
<path id="number-2" d="M697.395,600.039v136.406H217.802V612.149c79.187-54.266,149.047-114.406,209.547-180.406
	s90.75-124.297,90.75-174.891c0-30.797-9.172-55.188-27.5-73.156c-18.344-17.969-46.203-26.953-83.594-26.953
	c-62.344,0-121.375,23.109-177.109,69.297V70.945c24.203-17.594,55.734-32.625,94.609-45.094
	c38.859-12.469,76.984-18.703,114.391-18.703c74.797,0,134.375,19.625,178.75,58.859s66.563,94.047,66.563,164.438
	c0,126.875-80.672,250.063-242,369.594H697.395z"/>
<path id="number-3" d="M420.2,4.399c77.719,0,139.328,18.516,184.797,55.547s68.203,85.25,68.203,144.656
	c0,81.406-37.031,137.5-111.094,168.297c83.594,19.813,125.391,74.078,125.391,162.797c0,61.609-23.297,110.922-69.859,147.953
	s-110.359,55.547-191.391,55.547S279.028,726.727,227.7,701.789v-154c58.656,32.281,119.156,48.406,181.5,48.406
	c35.938,0,63.984-7.688,84.156-23.094c20.156-15.406,30.25-34.844,30.25-58.313c0-53.531-49.5-80.297-148.5-80.297h-38.5v-132h38.5
	c38.859,0,70.75-6.594,95.688-19.797c24.938-13.188,37.406-33,37.406-59.406c0-50.594-33-75.891-99-75.891
	c-50.609,0-101.578,15.766-152.906,47.297V45.102C310.559,17.977,365.2,4.399,420.2,4.399z"/>
<path id="number-4" d="M739.2,443.297v136.391h-88v152.906H491.7V579.688H175.997V443.297L395.997,11H651.2v432.297H739.2z
	 M491.7,443.297V117.688L333.294,443.297H491.7z"/>
<path id="number-5" d="M405.349,144.094v122.109c16.125-2.203,32.266-3.313,48.406-3.313c78.453,0,138.578,20.172,180.391,60.5
	c41.797,40.344,62.703,96.625,62.703,168.859s-24.75,130.906-74.25,176s-116.969,67.641-202.406,67.641
	s-152.719-12.828-201.844-38.5V545.594c49.859,30.813,105.594,46.203,167.203,46.203c98.25,0,147.391-35.188,147.391-105.594
	c0-26.406-10.094-47.297-30.25-62.703c-20.172-15.406-54.453-23.109-102.844-23.109c-48.406,0-98.641,12.109-150.703,36.313v-429
	h403.703v136.391H405.349z"/>
<path id="number-6" d="M563.747,137.5c-52.063,0-94.781,15.953-128.156,47.844c-33.375,31.906-55.922,74.625-67.641,128.156
	c39.594-33.734,88.906-50.609,147.938-50.609S623.7,283.797,662.2,325.594c38.5,41.813,57.75,98.453,57.75,169.953
	s-22.922,131.641-68.75,180.406c-45.844,48.766-110.734,73.141-194.703,73.141s-148.516-31.703-193.609-95.141
	s-67.641-148.688-67.641-255.766c0-122.453,33.547-220.344,100.641-293.688c67.094-73.328,151.984-110,254.656-110
	c38.859,0,76.625,5.875,113.297,17.594v148.5C635.247,145.203,601.872,137.5,563.747,137.5z M464.747,606.094
	c28.594,0,50.969-9.891,67.094-29.703c16.125-19.797,24.203-45.469,24.203-77s-7.891-56.281-23.656-74.25
	s-37.953-26.953-66.547-26.953c-39.594,0-74.438,15.781-104.5,47.313C369.403,552.563,403.872,606.094,464.747,606.094z"/>
<path id="number-7" d="M215.599,11.547h484v136.406L420.192,732.047H250.802l280.5-584.094H215.599V11.547z"/>
<path id="number-8" d="M718.849,532.391c0,63.078-24.391,114.047-73.156,152.906c-48.766,38.875-112.563,58.297-191.391,58.297
	c-78.844,0-141.547-18.516-188.109-55.547s-69.844-87.078-69.844-150.156c0-77.719,34.828-133.828,104.5-168.297
	c-62.344-35.938-93.5-87.625-93.5-155.094S230.63,94.422,277.192,56.656S383.708,0,457.052,0
	c73.328,0,133.281,17.969,179.844,53.906s69.859,88.188,69.859,156.75s-30.078,120.453-90.203,155.641
	C684.739,397.828,718.849,453.203,718.849,532.391z M356.942,531.844c0,23.844,7.875,43.828,23.656,59.953
	C396.364,607.938,421.302,616,455.395,616s59.766-8.25,77-24.75s25.859-37.219,25.859-62.156s-8.984-45.828-26.953-62.703
	c-17.969-16.859-43.281-25.297-75.906-25.297c-32.641,0-57.203,9.172-73.703,27.5C365.192,486.938,356.942,508.016,356.942,531.844z
	 M454.849,127.594c-29.344,0-50.969,8.25-64.906,24.75s-20.891,37.594-20.891,63.25c0,25.672,8.422,46.203,25.297,61.609
	c16.859,15.406,37.938,23.094,63.25,23.094c25.297,0,46.375-7.688,63.25-23.094c16.859-15.406,25.297-37.031,25.297-64.906
	C546.145,155.828,515.708,127.594,454.849,127.594z"/>
<path id="number-9" d="M359.7,595.641c57.188,0,101.563-13.016,133.094-39.047s52.078-66.906,61.609-122.641
	c-31.531,31.531-79.391,47.297-143.547,47.297c-64.172,0-116.234-20.703-156.203-62.141S194.7,321.766,194.7,251.359
	s22.547-129.438,67.641-177.109c45.094-47.656,108.344-71.5,189.75-71.5s146.484,30.984,195.25,92.953
	s73.156,146.484,73.156,253.547c0,131.266-31.172,229.344-93.5,294.25c-62.344,64.906-145.578,97.344-249.703,97.344
	c-49.875,0-93.5-6.969-130.891-20.891V568.141C284.528,586.484,322.294,595.641,359.7,595.641z M452.106,351.453
	c44,0,79.563-16.5,106.688-49.5c-8.797-104.125-44-156.203-105.594-156.203c-28.609,0-51.531,9.172-68.75,27.5
	c-17.234,18.344-25.844,43.094-25.844,74.25c0,31.172,8.422,56.297,25.297,75.359C400.763,341.922,423.497,351.453,452.106,351.453z
	"/>
</svg>
