<svg id="ombre_plaque" data-name="ombre plaque" xmlns="http://www.w3.org/2000/svg" xmlns:xlink="http://www.w3.org/1999/xlink" viewBox="0 0 500 500"><defs><clipPath id="clip-path"><path d="M247.92,318.3l-49.68-28.87c4.52,2.63,9.39,3.77,13.74,1.26,16.07-9.28,15.46-30.93,15.42-44.31l49.68,28.87c0,13.38.66,35-15.42,44.31C257.31,322.07,252.44,320.93,247.92,318.3Z" fill="none"/></clipPath><clipPath id="clip-path-2"><polygon points="246.44 197.4 246.4 184.49 254.23 179.97 254.27 192.88 246.44 197.4" fill="none"/></clipPath><clipPath id="clip-path-3"><path d="M269.8,217.4v0.13a0.24,0.24,0,0,1-.14.19V217.6A0.24,0.24,0,0,0,269.8,217.4Z" fill="none"/></clipPath><clipPath id="clip-path-4"><path d="M268.38,217.8v-0.13a0.24,0.24,0,0,0,.14.2,0.75,0.75,0,0,0,.68,0V218a0.75,0.75,0,0,1-.68,0A0.24,0.24,0,0,1,268.38,217.8Z" fill="none"/></clipPath><clipPath id="clip-path-5"><path d="M265.42,224v0.39a1,1,0,0,1-.56.78v-0.39A1,1,0,0,0,265.42,224Z" fill="none"/></clipPath><clipPath id="clip-path-6"><path d="M252.84,224.33v-0.39a1,1,0,0,0,.57.79v0.39A1,1,0,0,1,252.84,224.33Z" fill="none"/></clipPath><clipPath id="clip-path-7"><path d="M260.51,227.26v0.39a3,3,0,0,1-2.72,0v-0.39A3,3,0,0,0,260.51,227.26Z" fill="none"/></clipPath><clipPath id="clip-path-8"><path d="M251.38,213.42L252,213a0.8,0.8,0,0,1,.86.08l-0.59.41A0.8,0.8,0,0,0,251.38,213.42Z" fill="#fff"/></clipPath><clipPath id="clip-path-9"><path d="M259.06,222.19l-0.59.41a0.73,0.73,0,0,0,.23-0.7l0.59-.41A0.73,0.73,0,0,1,259.06,222.19Z" fill="#fff"/></clipPath><clipPath id="clip-path-10"><path d="M257,216.26l0.59-.41a3,3,0,0,1,1.35,2l-0.59.41A3,3,0,0,0,257,216.26Z" fill="#fff"/></clipPath></defs><title>processus</title><polygon points="250.61 458.64 71.27 355.1 71.21 358.6 250.55 462.14 428.74 358.6 428.79 355.1 250.61 458.64" fill="#202b54"/><path d="M176.61,349.27l-14,10.21a1.18,1.18,0,0,0,.07,2l59.89,32.28a1.18,1.18,0,0,0,1.13,0l121.74-66.1L312,319Z" fill="#1f2a52"/><g style="isolation:isolate"><g clip-path="url(#clip-path)"><path d="M247.92,318.3l-49.68-28.87a21.73,21.73,0,0,0,4.53,2l49.68,28.87a21.73,21.73,0,0,1-4.53-2" fill="#232e54"/></g></g><path d="M277.08,275.25l-0.45-138.87L227,107.51l0.45,138.87c0,12.44.57,32.06-12.3,42.2-1,.76-3.54,2.34-3.74,2.44a10.22,10.22,0,0,1-2.53.86,12.35,12.35,0,0,1-6.06-.43l49.68,28.87a12.35,12.35,0,0,0,6.06.43,10.22,10.22,0,0,0,2.53-.86l0.62-.33a26.17,26.17,0,0,0,3.12-2.11C277.65,307.31,277.11,287.7,277.08,275.25Z" fill="#212c4f"/><polygon points="276.63 136.38 226.95 107.51 281.27 76.15 330.95 105.02 276.63 136.38" fill="#4f66bf"/><polygon points="276.9 132.79 233.14 107.36 281 79.73 324.76 105.16 276.9 132.79" fill="#ff6969"/><path d="M330.08,52.52l2.54,0.53a2.6,2.6,0,0,1,2,3.06l-19.13,94.44a2.6,2.6,0,0,1-3.06,2L309.9,152a2.6,2.6,0,0,1-2-3.06L327,54.54A2.6,2.6,0,0,1,330.08,52.52Z" fill="#52413f"/><path d="M338.2,19.79h0a3.64,3.64,0,0,1,2.72,4.54L334,59.09l-7.62-1.58L334,22.9C334.43,20.79,336.09,19.36,338.2,19.79Z" fill="#dedede"/><path d="M317.26,53l2.59,0.22a2.6,2.6,0,0,1,2.36,2.8l-8.36,96.5a2.6,2.6,0,0,1-2.8,2.36l-2.59-.22a2.6,2.6,0,0,1-2.36-2.8l8.36-96.5A2.6,2.6,0,0,1,317.26,53Z" fill="#805954"/><path d="M321.42,19.58h0a3.64,3.64,0,0,1,3.24,4.18l-2.72,35.33-7.75-.66,3.42-35.27C317.79,21,319.28,19.39,321.42,19.58Z" fill="#dedede"/><polygon points="281 79.73 281 130.43 276.9 132.79 233.14 107.36 281 79.73" fill="#dd5d5f"/><polygon points="227.39 242.19 227.36 273.1 266.7 297.04 274.53 286.66 274.53 254.04 227.39 242.19" fill="#1f294a"/><polygon points="227.14 160.86 276.43 189.12 276.43 255.04 227.35 226.06 227.14 160.86" fill="#ff6969"/><polygon points="274.33 187.74 274.33 200.63 227.65 227.06 227.14 160.86 274.33 187.74" fill="#dd5d5f"/><polygon points="247.82 219.17 271.14 205.29 292.69 216.48 292.32 234.95 279.5 237.74 247.82 219.17" fill="#dd5d5f"/><rect x="249.02" y="208.17" width="1.26" height="11.86" rx="0.45" ry="0.45" fill="#ebb893"/><rect x="278.88" y="225.88" width="1.26" height="11.86" rx="0.45" ry="0.45" fill="#ebb893"/><rect x="294.84" y="215.99" width="1.26" height="11.86" rx="0.45" ry="0.45" fill="#ebb893"/><g style="isolation:isolate"><polygon points="297.04 215.69 297.04 217.23 279.5 227.41 279.51 225.88 297.04 215.69" fill="#898989"/><polygon points="279.51 225.88 279.5 227.41 248.07 209.27 248.08 207.73 279.51 225.88" fill="#898989"/><polygon points="297.04 215.69 279.51 225.88 248.08 207.73 265.61 197.54 297.04 215.69" fill="#d6d6d6"/></g><g style="isolation:isolate"><polygon points="269.47 216.82 260.42 211.56 260.41 211.26 269.47 216.53 269.47 216.82" fill="#e9e9e9"/><polygon points="269.47 216.53 260.41 211.26 263.26 209.62 272.32 214.88 269.47 216.53" fill="#f6f6f6"/><polygon points="272.32 214.88 272.32 215.18 269.47 216.82 269.47 216.53 272.32 214.88" fill="#f3f3f3"/></g><polygon points="269.52 208.43 266.7 210.06 269.88 212.08 272.49 210.15 269.52 208.43" fill="#e9e9e9"/><polygon points="270.6 207.84 268.98 208.7 272.16 210.44 273.57 209.56 270.6 207.84" fill="#c9c9c9"/><g style="isolation:isolate"><polyline points="279.11 213.34 279.44 213.15 279.44 213.15 279.11 213.34 279.11 213.34" fill="#e8e8e8"/><path d="M279.11,213.34l0.33-.19v0l-0.33.19v0" fill="#e7e7e7"/></g><path d="M279.11,212.32l-0.81-.47-13.15-7.59-0.81-.47v1.09a1.15,1.15,0,0,0,.52.9l13.71,7.92a0.32,0.32,0,0,0,.53-0.29v-1.09" fill="#fff"/><path d="M278.47,201.13l-13.42-7.75a0.41,0.41,0,0,0-.67.38l0,10.95V203.8l0.77,0.44h0l0,0,13.15,7.59,0.81,0.47,0-10A1.48,1.48,0,0,0,278.47,201.13Zm-13.31,2.4,0-9.14L278.33,202l0,9.14Z" fill="#525252"/><polyline points="278.33 201.98 265.19 194.39 265.16 203.53 278.31 211.12 278.33 201.98" fill="#97d6ff"/><path d="M278.81,200.91l-13.42-7.75a0.71,0.71,0,0,0-.78.13,0.49,0.49,0,0,1,.45.06l13.42,7.75a1.59,1.59,0,0,1,.67,1.15l0,11.14a0.45,0.45,0,0,1-.17.35,1.32,1.32,0,0,0,.5-0.55l0-11.14A1.39,1.39,0,0,0,278.81,200.91Z" fill="#efefef"/><polygon points="229.11 160.95 229.11 228.12 227.19 226.98 227.14 160.25 229.11 160.95" fill="#1f294a"/><polyline points="254.25 189.99 254.25 193.77 246.44 198.25 246.44 194.48" fill="#c45254"/><g style="isolation:isolate"><g clip-path="url(#clip-path-2)"><path d="M251.65,185.57l0.54-.33v0.16a1,1,0,0,0-.26.3,2.33,2.33,0,0,0-.2.55l-1.16,4.19-0.24.85a2.9,2.9,0,0,1-.3.75,1.54,1.54,0,0,1-.56.53,0.41,0.41,0,0,1-.35.07,0.27,0.27,0,0,1-.14-0.28,0.76,0.76,0,0,1,.38-0.65,0.3,0.3,0,0,1,.26,0,0.21,0.21,0,0,1,.1.23,0.73,0.73,0,0,1-.19.47h0a1.55,1.55,0,0,0,.6-1l0.25-.89-1.3-2.83a0.41,0.41,0,0,0-.24-0.23,0.35,0.35,0,0,0-.24.05v-0.17a6.34,6.34,0,0,0,.7-0.35c0.21-.12.51-0.31,0.93-0.58v0.17l-0.27.17a0.61,0.61,0,0,0-.16.17,0.4,0.4,0,0,0-.06.23,0.81,0.81,0,0,0,.1.35l0.87,2,0.77-2.82a1.81,1.81,0,0,0,.08-0.42c0-.13,0-0.2-0.12-0.21a0.79,0.79,0,0,0-.41.12v-0.16l0.6-.33m2.11-4.78-6.88,4,0,11.82,6.88-4,0-11.82" fill="#fff"/><path d="M246.91,196.59l0-11.82,6.88-4,0,11.82-6.88,4M254.23,180l-7.83,4.52,0,12.92,7.83-4.52,0-12.92" fill="#cfcfcf"/><path d="M252.19,185.23l-0.54.33-0.6.33v0.16a0.79,0.79,0,0,1,.41-0.12c0.09,0,.12.08,0.12,0.21a1.81,1.81,0,0,1-.08.42l-0.77,2.82-0.87-2a0.81,0.81,0,0,1-.1-0.35,0.4,0.4,0,0,1,.06-0.23,0.61,0.61,0,0,1,.16-0.17l0.27-.17v-0.17c-0.41.27-.72,0.47-0.93,0.58a6.34,6.34,0,0,1-.7.35v0.17a0.35,0.35,0,0,1,.24-0.05,0.41,0.41,0,0,1,.24.23l1.3,2.83-0.25.89a1.55,1.55,0,0,1-.6,1h0a0.73,0.73,0,0,0,.19-0.47,0.21,0.21,0,0,0-.1-0.23,0.3,0.3,0,0,0-.26,0,0.76,0.76,0,0,0-.38.65,0.27,0.27,0,0,0,.14.28,0.41,0.41,0,0,0,.35-0.07A1.54,1.54,0,0,0,250,192a2.9,2.9,0,0,0,.3-0.75l0.24-.85,1.16-4.19a2.33,2.33,0,0,1,.2-0.55,1,1,0,0,1,.26-0.3v-0.16" fill="#2bdfff"/></g></g><g style="isolation:isolate"><path d="M240.25,145.6l3.37-7.21,3.33,11.22-6.7-4m4.38-11.84-0.5-.3-6.81,14.72a4.94,4.94,0,0,1-1.61,2.32,2.39,2.39,0,0,1-1.58-.29v0.63l6.14,3.67v-0.63a7.05,7.05,0,0,1-1.84-1.61,2.24,2.24,0,0,1-.43-1.18,4.24,4.24,0,0,1,.48-1.7l1.31-2.82,7.54,4.51,1.19,4a11.57,11.57,0,0,1,.58,2.69,0.65,0.65,0,0,1-.41.7,2.54,2.54,0,0,1-1.58-.49v0.63l7.69,4.6v-0.63a6.14,6.14,0,0,1-1.86-1.88,17.68,17.68,0,0,1-1.5-3.87l-6.84-23.08" fill="#1a2340"/><path d="M260.66,165.06a4.06,4.06,0,0,1-1.42-1.65,5.07,5.07,0,0,1-.62-2.39,2.07,2.07,0,0,1,.48-1.48,2.34,2.34,0,0,1,1.62-.58,19.47,19.47,0,0,1,2.8.25l0,5.89a3.35,3.35,0,0,1-2.87,0m0.82-13.75q-2.28-1.37-3.54-.91a1.83,1.83,0,0,0-1.26,1.91,3,3,0,0,0,.34,1.4,2.37,2.37,0,0,0,.87,1,0.81,0.81,0,0,0,.88.11,1.13,1.13,0,0,0,.34-1l0-1a1,1,0,0,1,.54-1,1.55,1.55,0,0,1,1.43.28,4.74,4.74,0,0,1,1.82,2,8,8,0,0,1,.64,3.55v0.61a21.12,21.12,0,0,0-4.84-.44,2.72,2.72,0,0,0-2,.93,2.78,2.78,0,0,0-.43,1.7,7,7,0,0,0,.89,3.41,6.24,6.24,0,0,0,2.25,2.45,3.64,3.64,0,0,0,1.65.57,10.71,10.71,0,0,0,2.54-.6,5,5,0,0,0,.44,2.22,3,3,0,0,0,1.12,1.24c1,0.58,2,.36,3.07-0.69V168a4,4,0,0,1-1.16.54,0.7,0.7,0,0,1-.4-0.12,1.17,1.17,0,0,1-.39-0.4,2.1,2.1,0,0,1-.24-0.81c-0.05-.36-0.07-1.27-0.08-2.75v-5.25a12.8,12.8,0,0,0-.27-3.12,6.74,6.74,0,0,0-1.26-2.38,11,11,0,0,0-2.88-2.41" fill="#1a2340"/></g><polygon points="258.38 178.62 258.38 191.38 269.61 185.05 258.38 178.62" fill="#696969"/><polygon points="258.9 178.92 258.9 190.43 269.14 184.78 258.9 178.92" fill="#fff"/><polygon points="258.38 191.38 257.8 190.94 257.8 178.32 258.38 178.62 258.38 191.38" fill="#525252"/><g style="isolation:isolate"><g style="isolation:isolate"><g clip-path="url(#clip-path-3)"><g style="isolation:isolate"><polyline points="269.8 217.4 269.8 217.53 269.8 217.54 269.8 217.41 269.8 217.4" fill="#f2f2f2"/><path d="M269.8,217.41v0" fill="#f3f3f3"/><path d="M269.8,217.43v0" fill="#f3f3f3"/><path d="M269.79,217.46v0" fill="#f4f4f4"/><path d="M269.78,217.49v0.13l0,0v-0.13l0,0" fill="#f5f5f5"/><path d="M269.76,217.52v0.13l0,0v-0.13l0,0" fill="#f5f5f5"/><path d="M269.73,217.55v0.13l-0.06,0v-0.13l0.06,0" fill="#f6f6f6"/><polyline points="269.67 217.59 269.67 217.72 269.66 217.73 269.66 217.6 269.67 217.59" fill="#f6f6f6"/></g></g></g><polygon points="269.66 217.6 269.66 217.73 269.19 218 269.19 217.87 269.66 217.6" fill="#f8f8f8"/><g style="isolation:isolate"><g clip-path="url(#clip-path-4)"><g style="isolation:isolate"><path d="M269.19,217.87V218l-0.1,0v-0.13l0.1,0" fill="#f6f6f6"/><path d="M269.09,217.91V218l-0.09,0v-0.13l0.09,0" fill="#f6f6f6"/><path d="M269,217.94v0.13h-0.06v-0.13H269" fill="#f5f5f5"/><path d="M268.94,217.94v0.13h-0.05v-0.13h0.05" fill="#f5f5f5"/><path d="M268.89,217.95v0.13h0v-0.13h0" fill="#f4f4f4"/><path d="M268.84,217.95v0.13h0v-0.13h0" fill="#f3f3f3"/><path d="M268.79,217.95v0.13h0v-0.13h0" fill="#f3f3f3"/><path d="M268.74,217.94v0.13h0v-0.13h0" fill="#f2f2f2"/><path d="M268.69,217.93v0.13h-0.05v-0.13h0.05" fill="#f2f2f2"/><path d="M268.64,217.92v0.13l-0.06,0V217.9l0.06,0" fill="#f1f1f1"/><path d="M268.59,217.9V218l-0.07,0a0.24,0.24,0,0,1-.14-0.2v-0.13a0.24,0.24,0,0,0,.14.2l0.07,0" fill="#f0f0f0"/></g></g></g><path d="M269.66,217.2a0.21,0.21,0,0,1,0,.39l-0.47.27a0.75,0.75,0,0,1-.68,0,0.21,0.21,0,0,1,0-.39l0.47-.27A0.75,0.75,0,0,1,269.66,217.2Z" fill="#fbfbfb"/></g><path d="M240.35,220.09a5,5,0,0,0-4.5-.23,1.3,1.3,0,0,0-.87,1.55l0.95,2.49a0.44,0.44,0,0,0,.21.23,4.55,4.55,0,0,0,2.24.66,3.88,3.88,0,0,0,2.2-.81c0.1-.08.17,0.27,0.2,0.14l0.51-2.12h0A1.76,1.76,0,0,0,240.35,220.09Z" fill="#fff"/><path d="M240,220.77l1.79-7.71-1.72,4.42,0.67-4.32-1.25,3.41,0.14-6.08-0.59,5.35L239,208.7s-0.22,5-.71,8.12L238,209.29v8.4l-1.73-4.64,0.5,6-2.26-5.45,2,7.47h-0.1l-3-4.93,2.38,4.68c0.11,0.48.49,1.31,2.43,1.31s2.39-1.13,2.39-1.13l2.25-5.86Z" fill="#5fba68"/><path d="M266.27,232.33l-7.17,4-0.1,0a0.55,0.55,0,0,1-.12-0.44c0-2.2.12-4.4,0.07-6.61a0.69,0.69,0,0,1,.07-0.35,0.38,0.38,0,0,1,.5,0c0.88,0.36,1.73.76,2.6,1.14l4,1.75A0.43,0.43,0,0,1,266.27,232.33Z" fill="#d65858"/><path d="M258.32,236.7a0.9,0.9,0,0,0-.53-0.61c-1.91-1.07-3.82-2.16-5.72-3.24a0.48,0.48,0,0,0-.31-0.09,0.63,0.63,0,0,1,.2-0.55c1.36-.76,2.76-1.46,4.14-2.19,0.64-.34,1.27-0.7,1.93-1,0.15-.07.34-0.21,0.45,0.06a17.58,17.58,0,0,1,0,2.62c-0.09,1.48,0,3-.06,4.44A0.72,0.72,0,0,1,258.32,236.7Z" fill="#d65858"/><path d="M258.32,236.7c0-2.27.07-4.53,0.08-6.79,0-.31,0-0.63,0-0.94a0.33,0.33,0,0,1-.09-0.23,6.47,6.47,0,0,1,.08-1.82,0.75,0.75,0,0,1,.77,0,3.48,3.48,0,0,1,.09,1.32,0.9,0.9,0,0,1-.11.66,2.69,2.69,0,0,0-.06,1c0,2-.06,4-0.09,6,0,0.13,0,.27,0,0.4s0,0.14,0,.21a0.31,0.31,0,0,1-.23.32A0.33,0.33,0,0,1,258.32,236.7Z" fill="#4c4c4c"/><path d="M263.12,225a1.2,1.2,0,0,1,.56-0.31l3.08,7.12,0.05,0.13a0.37,0.37,0,0,1,0,.5,0.35,0.35,0,0,1-.51-0.07,1.36,1.36,0,0,0-.2-0.44,4.77,4.77,0,0,1-.63-1.26c-0.73-1.73-1.5-3.45-2.23-5.18A0.58,0.58,0,0,1,263.12,225Z" fill="#4c4c4c"/><path d="M253.94,224.83l0.59,0.34a0.82,0.82,0,0,1-.08.46c-0.74,2.09-1.5,4.17-2.23,6.26a0.93,0.93,0,0,1-.23.37l-0.23.52a0.35,0.35,0,0,1-.47,0,0.38,0.38,0,0,1,0-.47Z" fill="#4c4c4c"/><g style="isolation:isolate"><g clip-path="url(#clip-path-5)"><g style="isolation:isolate"><path d="M265.42,224v0.39a1,1,0,0,1-.56.78v-0.39a1,1,0,0,0,.56-0.78" fill="#853e20"/></g></g></g><g style="isolation:isolate"><g clip-path="url(#clip-path-6)"><g style="isolation:isolate"><path d="M253.41,224.73v0.39a1,1,0,0,1-.57-0.79v-0.39a1,1,0,0,0,.57.79" fill="#853e20"/></g></g></g><polygon points="264.87 224.73 264.86 225.13 260.51 227.66 260.51 227.26 264.87 224.73" fill="#873f20"/><polygon points="257.79 227.26 257.79 227.66 253.41 225.13 253.41 224.73 257.79 227.26" fill="#873f20"/><g style="isolation:isolate"><g clip-path="url(#clip-path-7)"><g style="isolation:isolate"><path d="M260.51,227.26v0.39a3,3,0,0,1-2.72,0v-0.39a3,3,0,0,0,2.72,0" fill="#853e20"/></g></g></g><path d="M264.86,223.16a0.83,0.83,0,0,1,0,1.57l-4.35,2.53a3,3,0,0,1-2.72,0l-4.38-2.53a0.83,0.83,0,0,1,0-1.57l4.35-2.53a3,3,0,0,1,2.72,0Z" fill="#ff773d"/><g style="isolation:isolate"><path d="M251.38,213.42L252,213a0.8,0.8,0,0,1,.86.08l-0.59.41A0.8,0.8,0,0,0,251.38,213.42Z" fill="#fff"/><g clip-path="url(#clip-path-8)"><g style="isolation:isolate"><path d="M251.38,213.42L252,213l0,0-0.59.41,0,0" fill="#fff"/><path d="M251.42,213.39L252,213l0.09,0-0.59.41-0.09,0" fill="#fff"/><path d="M251.51,213.35l0.59-.41,0.09,0-0.59.41-0.09,0" fill="#fff"/><path d="M251.6,213.33l0.59-.41h0.1l-0.59.41h-0.1" fill="#fff"/><path d="M251.7,213.33l0.59-.41h0.11l-0.59.41H251.7" fill="#fff"/><path d="M251.82,213.34l0.59-.41,0.13,0-0.59.41-0.13,0" fill="#fff"/><path d="M252,213.37l0.59-.41,0.18,0.07-0.59.41-0.18-.07" fill="#fff"/><path d="M252.13,213.44l0.59-.41,0.11,0.06-0.59.41-0.11-.06" fill="#fff"/></g></g></g><g style="isolation:isolate"><path d="M259.06,222.19l-0.59.41a0.73,0.73,0,0,0,.23-0.7l0.59-.41A0.73,0.73,0,0,1,259.06,222.19Z" fill="#fff"/><g clip-path="url(#clip-path-9)"><g style="isolation:isolate"><path d="M258.7,221.91l0.59-.41a0.73,0.73,0,0,1-.23.7l-0.59.41a0.73,0.73,0,0,0,.23-0.7" fill="#fff"/></g></g></g><polygon points="258.37 218.29 258.96 217.88 259.29 221.5 258.7 221.91 258.37 218.29" fill="#fff"/><polygon points="252.24 213.5 252.83 213.09 257.61 215.85 257.02 216.26 252.24 213.5" fill="#fff"/><g style="isolation:isolate"><path d="M257,216.26l0.59-.41a3,3,0,0,1,1.35,2l-0.59.41A3,3,0,0,0,257,216.26Z" fill="#fff"/><g clip-path="url(#clip-path-10)"><g style="isolation:isolate"><path d="M257,216.26l0.59-.41a2.52,2.52,0,0,1,.59.49l-0.59.41a2.52,2.52,0,0,0-.59-0.49" fill="#fff"/><path d="M257.61,216.75l0.59-.41,0.17,0.2-0.59.41-0.17-.2" fill="#fff"/><path d="M257.78,217l0.59-.41,0.12,0.17-0.59.41-0.12-.17" fill="#fff"/><path d="M257.9,217.12l0.59-.41,0.1,0.16-0.59.41-0.1-.16" fill="#fff"/><path d="M258,217.28l0.59-.41,0.09,0.15-0.59.41-0.09-.15" fill="#fff"/><path d="M258.09,217.43l0.59-.41,0.08,0.15-0.59.41-0.08-.15" fill="#fff"/><path d="M258.17,217.59l0.59-.41,0.07,0.16-0.59.41-0.07-.16" fill="#fff"/><path d="M258.23,217.75l0.59-.41,0.06,0.17-0.59.41-0.06-.17" fill="#fff"/><path d="M258.29,217.92l0.59-.41a2.09,2.09,0,0,1,.05.21l-0.59.41a2.09,2.09,0,0,0-.05-0.21" fill="#fff"/><path d="M258.34,218.12l0.59-.41q0,0.08,0,.17l-0.59.41q0-.08,0-0.17" fill="#fff"/></g></g></g><path d="M257,216.26a3,3,0,0,1,1.35,2l0.34,3.62c0.07,0.72-.43,1-1.1.61l-4.78-2.76a3,3,0,0,1-1.34-2l-0.34-3.62c-0.07-.73.43-1,1.09-0.62Z" fill="#ccc"/><path d="M253.6,220.12a17,17,0,0,0-.26-1.79,0.43,0.43,0,0,1,.12-0.46,0.39,0.39,0,0,1,.44,0c0.34,0.17.67,0.34,1,.49a0.56,0.56,0,0,1,.35.47c0.12,0.8.26,1.6,0.39,2.4,0.17,1.1.34,2.19,0.52,3.29a0.35,0.35,0,0,1-.25.48c-0.25,0-.35-0.14-0.39-0.37-0.19-1.2-.39-2.4-0.59-3.61a0.15,0.15,0,0,1-.11-0.12c-0.09-.5-0.15-1-0.24-1.5a0.49,0.49,0,0,0-.35-0.46c0,0.58.15,1.12,0.25,1.66a1.29,1.29,0,0,1,0,.72l0.4,2.46c0,0.06,0,.12,0,0.18a0.33,0.33,0,1,1-.64.07c-0.09-.5-0.16-1-0.24-1.5,0-.27-0.1-0.54-0.15-0.81A10.3,10.3,0,0,0,253.6,220.12Z" fill="#4c4c4c"/><g style="isolation:isolate"><polygon points="259.25 205.67 259.25 206.33 255.59 208.46 255.6 207.79 259.25 205.67" fill="#91d3c0"/><polygon points="255.6 207.79 255.59 208.46 253.13 207.03 253.14 206.37 255.6 207.79" fill="#90d0be"/><polygon points="259.25 205.67 255.6 207.79 253.14 206.37 256.79 204.25 259.25 205.67" fill="#b0fee8"/></g><g style="isolation:isolate"><polygon points="261.69 207.71 261.69 208.29 258.5 210.15 258.5 209.56 261.69 207.71" fill="#d3d326"/><polygon points="258.5 209.56 258.5 210.15 256.35 208.91 256.35 208.32 258.5 209.56" fill="#d0d026"/><polygon points="261.69 207.71 258.5 209.56 256.35 208.32 259.54 206.47 261.69 207.71" fill="#fefe2e"/></g><line x1="244.23" y1="135.2" x2="240.15" y2="137.56" fill="none" stroke="#0f1324" stroke-linecap="round" stroke-linejoin="round" stroke-width="0.67"/><line x1="250.33" y1="159.5" x2="246.25" y2="161.86" fill="none" stroke="#0f1324" stroke-linecap="round" stroke-linejoin="round" stroke-width="0.67"/><line x1="236.6" y1="151.19" x2="232.52" y2="153.55" fill="none" stroke="#0f1324" stroke-linecap="round" stroke-linejoin="round" stroke-width="0.67"/><line x1="247.89" y1="150.01" x2="243.81" y2="152.37" fill="none" stroke="#0f1324" stroke-linecap="round" stroke-linejoin="round" stroke-width="0.67"/><line x1="258.09" y1="153.75" x2="254.01" y2="156.11" fill="none" stroke="#0f1324" stroke-linecap="round" stroke-linejoin="round" stroke-width="0.67"/><line x1="257.39" y1="159.5" x2="253.3" y2="161.86" fill="none" stroke="#0f1324" stroke-linecap="round" stroke-linejoin="round" stroke-width="0.67"/><line x1="264.94" y1="167.62" x2="260.86" y2="169.98" fill="none" stroke="#0f1324" stroke-linecap="round" stroke-linejoin="round" stroke-width="0.67"/><line x1="264.34" y1="158.71" x2="260.25" y2="161.06" fill="none" stroke="#0f1324" stroke-linecap="round" stroke-linejoin="round" stroke-width="0.67"/><line x1="261.89" y1="152.37" x2="257.8" y2="154.72" fill="none" stroke="#0f1324" stroke-linecap="round" stroke-linejoin="round" stroke-width="0.67"/><line x1="239.48" y1="145.64" x2="235.4" y2="148" fill="none" stroke="#0f1324" stroke-linecap="round" stroke-linejoin="round" stroke-width="0.67"/><g style="isolation:isolate"><path d="M235.7,148.22l3.37-7.22,3.33,11.22-6.7-4m4.39-11.84-0.5-.3-6.81,14.72a4.94,4.94,0,0,1-1.61,2.32,2.39,2.39,0,0,1-1.58-.29v0.62l6.14,3.67V156.5a7,7,0,0,1-1.83-1.61,2.21,2.21,0,0,1-.42-1.17,4.28,4.28,0,0,1,.48-1.7l1.31-2.82,7.54,4.51,1.19,4a11.48,11.48,0,0,1,.58,2.69,0.64,0.64,0,0,1-.41.7,2.46,2.46,0,0,1-1.57-.48v0.62l7.69,4.6v-0.62a6.14,6.14,0,0,1-1.86-1.88,17.68,17.68,0,0,1-1.5-3.87l-6.84-23.08" fill="#5771cf"/><path d="M256.12,167.69a4.06,4.06,0,0,1-1.42-1.65,5.07,5.07,0,0,1-.62-2.39,2.06,2.06,0,0,1,.48-1.48,2.34,2.34,0,0,1,1.62-.58,18.57,18.57,0,0,1,2.8.24l0,5.89a3.33,3.33,0,0,1-2.87,0m0.82-13.75q-2.28-1.37-3.55-.91a1.83,1.83,0,0,0-1.26,1.91,3,3,0,0,0,.34,1.4,2.36,2.36,0,0,0,.87,1,0.8,0.8,0,0,0,.88.11,1.12,1.12,0,0,0,.34-1l0-1a1,1,0,0,1,.54-1,1.56,1.56,0,0,1,1.44.29,4.75,4.75,0,0,1,1.82,1.95,8.06,8.06,0,0,1,.63,3.55v0.6a21.1,21.1,0,0,0-4.84-.44,2.71,2.71,0,0,0-2,.93,2.78,2.78,0,0,0-.43,1.7,7.06,7.06,0,0,0,.89,3.41,6.24,6.24,0,0,0,2.25,2.45,3.65,3.65,0,0,0,1.65.57,11,11,0,0,0,2.54-.6,5.12,5.12,0,0,0,.44,2.21,3,3,0,0,0,1.12,1.24q1.47,0.88,3.07-.69v-0.95a4.24,4.24,0,0,1-1.16.54,0.71,0.71,0,0,1-.41-0.12,1.16,1.16,0,0,1-.38-0.39,2.1,2.1,0,0,1-.24-0.81c-0.05-.36-0.08-1.28-0.08-2.75v-5.24a12.8,12.8,0,0,0-.26-3.12,6.81,6.81,0,0,0-1.26-2.39,11.08,11.08,0,0,0-2.88-2.41" fill="#5771cf"/></g><path d="M331,105l0.46,142.7c0.14,50.64-22.49,98.15-69,124.4-20.53,11.58-37.62,7-53.87-4.31l31.21-56c6.13,6,14.75,11.9,22,7.74,16.07-9.28,15.46-30.93,15.42-44.31l-0.65-58.13,0.2-80.75Z" fill="#374785"/><polygon points="276.79 186.79 277.09 259.3 274.56 254.52 274.33 187.08 276.79 186.79" fill="#212c4f"/><path d="M318.48,20.84s-6.6-1.92,6.06-20.83c0,0,7.18,18.92-.35,21.35C324.19,21.37,321.25,18.19,318.48,20.84Z" fill="#2b2b2b"/><path d="M334.89,20.83S325.16,19.56,341.76,0c0,0,7.93,21.35-1.16,21.35C340.6,21.35,337.66,18.18,334.89,20.83Z" fill="#2b2b2b"/><path d="M320.38,19.83l-4,38.78-2.2-.19,3.42-35.27A3.66,3.66,0,0,1,320.38,19.83Z" fill="#c4c4c4"/><path d="M337.19,19.77L328.57,58l-2.16-.45L334,23S334.69,19.72,337.19,19.77Z" fill="#c4c4c4"/><polygon points="318.87 94.54 319.81 108.29 317.54 109.33 318.87 94.54" fill="#453937"/><polygon points="208.5 367.8 158.82 338.93 190.03 282.96 239.71 311.82 208.5 367.8" fill="#232d54"/><polygon points="215.49 279.06 169.94 252.78 169.93 254.26 215.48 280.55 274.53 254.18 274.53 252.7 215.49 279.06" fill="#374785"/><polygon points="274.53 252.7 215.49 279.06 169.94 252.78 228.98 226.41 274.53 252.7" fill="#4f66bf"/><path d="M174.2,251.77a0.33,0.33,0,0,1-.28-0.52l56.18-83.41a0.33,0.33,0,1,1,.55.37l-56.18,83.41A0.33,0.33,0,0,1,174.2,251.77Z" fill="#fff"/><path d="M218.51,277.07a0.33,0.33,0,0,1-.18-0.06,0.33,0.33,0,0,1-.1-0.46l55.84-84.62a0.33,0.33,0,1,1,.56.37l-55.83,84.62A0.33,0.33,0,0,1,218.51,277.07Z" fill="#fff"/><path d="M320.78,110.76l-15.43,9c-0.41-1.64-2,.7-3.51.67s3.6-4.11,3.6-4.11L283.2,129.13c1.44,1.53,5.93,0,5.93,0l2-1.18-0.1.1s4.57-1.17,4.9,2.84c0,0.09,0,.17,0,0.25v7.23s-0.69,9,3.94,10.24c5.64,1.56,8.43-.23,9.3,5.13S309.13,175.5,315,175.5s7.64-11.69,7.64-23.73C322.66,146.64,320.78,110.76,320.78,110.76Z" fill="#ffb5bf"/><path d="M285.49,128.75s9.34-5.32,11.18-6.5S292.68,123.73,285.49,128.75Z" fill="#fff"/><path d="M303,138l-0.12,2-0.23,5.26-0.2,7.43c-0.08,2.72-.07,5.62-0.11,8.52-0.09,5.8,0,11.6,0,16a48.13,48.13,0,0,0,.16,5.26,8.36,8.36,0,0,0,.49,2,1,1,0,0,1-.47,1.15,0.83,0.83,0,0,1-.92-0.34,2.6,2.6,0,0,1,0-.8,8.36,8.36,0,0,0,.49-2c0.2-1.27-.13-3.26-0.1-5.43,0-4.35.11-10.15,0-16,0-2.9,0-5.8-.11-8.52s0.11-5.08,0-7.26L301.74,140l-0.12-2a0.61,0.61,0,0,1,.68-0.51,0.65,0.65,0,0,1,.74.47A0.36,0.36,0,0,1,303,138Z" fill="#ffb5bf"/><path d="M305.37,119.48v13.84s-0.24,3.72,5.37,3.72,4.17,9.22,6.16,11.34,6.34,4.81,6.34-10v-27.6Z" fill="#42b5ff"/><path d="M305.37,123.34l0.7,9.28s-0.15,3.89,5.46,3.89,4.35,10.66,5.37,13.22c0.71,1.79,6.34,3.45,6.34-11.38a52.79,52.79,0,0,0-6.31-25.22,6.28,6.28,0,0,0-3.05.54c-1.46.71-1.83-1.2-.5-2l-7.94,4.58s-8.13,4.46-7.71,5.38C297.73,121.67,305.37,118,305.37,123.34Z" fill="#67c2ff"/><path d="M298.43,120.7s5.45-2.66,8-3.49,4.27-2.51,1.76-1.42S298.43,120.7,298.43,120.7Z" fill="#fff"/><path d="M328.6,106.34c-1.8-1-3.55-.63-5.76.45s-5.3,2.54-9.46,4.91-5.08,2.74-3.36,3a24.2,24.2,0,0,0,4.29.2c1.09,0,1.58,1.13,2,1.84A35.18,35.18,0,0,1,318,122h0a4.24,4.24,0,0,0,1.86,2.37c2.64,1.81,1.23,3.15,2.46,7,1.14,3.59,3,3.78,3.64,3.7s2.23-.68,2.61-4.79C328.93,126.42,328.6,106.34,328.6,106.34Z" fill="#4b44b8"/><path d="M310.43,114.16a15.39,15.39,0,0,1,3-2c1.59-.7,1.79-1.17,3.33-1.77s5.2-2.42,5.64-2.28-0.45.36-2.18,1-6,3.4-7,3.71A19.66,19.66,0,0,0,310.43,114.16Z" fill="#fff"/><path d="M305.85,139.5l-0.07,22.37c0,13.42,0,31.32,0,49.22,0,8.95,0,17.9,0,26.29,0,4.19,0,8.25,0,12.1l0.06,10.84,0.11,9.16c0,2.73,0,5.1.12,7.06a36.8,36.8,0,0,0,.68,6.15,1.16,1.16,0,1,1-2.26.52,1.18,1.18,0,0,1,0-.52,36.8,36.8,0,0,0,.68-6.15c0.08-2,.07-4.33.12-7.06l0.11-9.16,0.06-10.84c0-3.85,0-7.9,0-12.1,0-8.39,0-17.34,0-26.29,0-17.9,0-35.8,0-49.22l-0.07-22.37a0.25,0.25,0,1,1,.5,0h0Z" fill="#ffb5bf"/><path d="M319.52,145.48l-0.07,1.89-0.15,5-0.13,7c-0.05,2.58,0,5.32-.07,8.07s0,5.5,0,8.07,0,5,0,7,0,3.78.11,5a11.11,11.11,0,0,0,.31,1.89,0.47,0.47,0,1,1-.91,0,11.11,11.11,0,0,0,.31-1.89c0.12-1.2.08-2.92,0.11-5s0-4.46,0-7,0-5.32,0-8.07,0-5.5-.07-8.07l-0.13-7-0.15-5-0.07-1.89a0.45,0.45,0,1,1,.91,0S319.52,145.47,319.52,145.48Z" fill="#67c3ff"/><ellipse cx="323.52" cy="349.39" rx="10.77" ry="4.32" fill="#67c3ff"/><path d="M331.41,362.54c0,4.7-5,3.62-21.21,8.51C299,374.43,289,367.25,289,362.54s9.5-8.51,21.21-8.51S331.41,357.84,331.41,362.54Z" fill="#ffb5bf"/><ellipse cx="335.12" cy="365.85" rx="2.55" ry="1.02" fill="#ffb5bf"/><ellipse cx="335.12" cy="354.03" rx="3.38" ry="1.35" fill="#4b44b8"/></svg>