<?xml version="1.0" encoding="utf-8"?>
<!-- Generator: Adobe Illustrator 17.0.0, SVG Export Plug-In . SVG Version: 6.00 Build 0)  -->
<!DOCTYPE svg PUBLIC "-//W3C//DTD SVG 1.1//EN" "http://www.w3.org/Graphics/SVG/1.1/DTD/svg11.dtd">
<svg version="1.1" id="Calque_1" xmlns="http://www.w3.org/2000/svg" xmlns:xlink="http://www.w3.org/1999/xlink" x="0px" y="0px"
	 width="426.84px" height="151.78px" viewBox="0 0 426.84 151.78" enable-background="new 0 0 426.84 151.78" xml:space="preserve">
<g>
	<polygon fill-rule="evenodd" clip-rule="evenodd" fill="#FFFFFF" points="137,50 122.8,111.14 103.4,50 75.4,50 56.2,111.14 42,50 
		0,50 34.4,149.94 73.2,149.94 89.4,100.95 105.6,149.94 144.6,149.94 178.8,50 	"/>
	<path fill-rule="evenodd" clip-rule="evenodd" fill="#FFFFFF" d="M251.44,48.2c-11,0-20.4,5.93-26.6,15.76V50.2h-36.88v99.68h36.88
		v-45.93c0-15.65,10.2-23.87,25.2-23.87c4.2,0,8,0.6,10.2,1.2l1.4-31.08C259.64,49,255.44,48.2,251.44,48.2z"/>
	<polygon fill-rule="evenodd" clip-rule="evenodd" fill="#FFFFFF" points="388.84,149.88 338.44,93.95 384.24,50 340.24,50 
		308.84,82.96 308.84,0 271.96,0 271.96,149.88 308.84,149.88 308.84,107.93 339.64,149.88 	"/>
	<path fill-rule="evenodd" clip-rule="evenodd" fill="#FFFFFF" d="M407.3,151.78c10.66,0,19.54-9.02,19.54-19.64
		c0-11.02-8.88-20.04-19.54-20.04c-10.46,0-19.34,9.02-19.34,20.04C387.96,142.76,396.84,151.78,407.3,151.78z"/>
</g>
</svg>
