<?xml version="1.0" encoding="utf-8"?>
<!-- Generator: Adobe Illustrator 17.0.0, SVG Export Plug-In . SVG Version: 6.00 Build 0)  -->
<!DOCTYPE svg PUBLIC "-//W3C//DTD SVG 1.1//EN" "http://www.w3.org/Graphics/SVG/1.1/DTD/svg11.dtd">
<svg version="1.1" id="Calque_1" xmlns="http://www.w3.org/2000/svg" xmlns:xlink="http://www.w3.org/1999/xlink" x="0px" y="0px"
	 width="793.607px" height="151.88px" viewBox="0 0 793.607 151.88" enable-background="new 0 0 793.607 151.88"
	 xml:space="preserve">
<g>
	<polygon fill-rule="evenodd" clip-rule="evenodd" fill="#FFFFFF" points="137.767,50 123.567,111.14 104.167,50 76.167,50 
		56.967,111.14 42.767,50 0.767,50 35.167,149.94 73.967,149.94 90.167,100.95 106.367,149.94 145.367,149.94 179.567,50 	"/>
	<path fill-rule="evenodd" clip-rule="evenodd" fill="#FFFFFF" d="M232.167,119.3c-10.98,0-19.56-8.5-19.56-19.36
		s8.58-19.36,19.56-19.36c10.78,0,19.55,8.5,19.55,19.36S242.947,119.3,232.167,119.3z M249.727,50.1v7.15
		c-6.78-5.9-15.57-9.25-25.94-9.25c-26.84,0-48.06,22.43-48.06,51.94s21.22,51.94,48.06,51.94c10.37,0,19.16-3.35,25.94-9.25v7.35
		l36.88-0.2V49.9L249.727,50.1z"/>
	<path fill-rule="evenodd" clip-rule="evenodd" fill="#FFFFFF" d="M356.167,119.3c-10.98,0-19.56-8.5-19.56-19.36
		s8.58-19.36,19.56-19.36c10.78,0,19.55,8.5,19.55,19.36S366.947,119.3,356.167,119.3z M373.727,50.1v7.15
		c-6.78-5.9-15.57-9.25-25.94-9.25c-26.84,0-48.06,22.43-48.06,51.94s21.22,51.94,48.06,51.94c10.37,0,19.16-3.35,25.94-9.25v7.35
		l36.88-0.2V49.9L373.727,50.1z"/>
	<path fill-rule="evenodd" clip-rule="evenodd" fill="#FFFFFF" d="M480.167,119.3c-10.98,0-19.56-8.5-19.56-19.36
		s8.58-19.36,19.56-19.36c10.78,0,19.55,8.5,19.55,19.36S490.947,119.3,480.167,119.3z M497.727,50.1v7.15
		c-6.78-5.9-15.57-9.25-25.94-9.25c-26.84,0-48.06,22.43-48.06,51.94s21.22,51.94,48.06,51.94c10.37,0,19.16-3.35,25.94-9.25v7.35
		l36.88-0.2V49.9L497.727,50.1z"/>
	<path fill-rule="evenodd" clip-rule="evenodd" fill="#FFFFFF" d="M618.207,48.2c-11,0-20.4,5.93-26.6,15.76V50.2h-36.88v99.68
		h36.88v-45.93c0-15.65,10.2-23.87,25.2-23.87c4.2,0,8,0.6,10.2,1.2l1.4-31.08C626.407,49,622.207,48.2,618.207,48.2z"/>
	<polygon fill-rule="evenodd" clip-rule="evenodd" fill="#FFFFFF" points="755.607,149.88 705.207,93.95 751.007,50 707.007,50 
		675.607,82.96 675.607,0 638.727,0 638.727,149.88 675.607,149.88 675.607,107.93 706.407,149.88 	"/>
	<path fill-rule="evenodd" clip-rule="evenodd" fill="#FFFFFF" d="M774.067,151.78c10.66,0,19.54-9.02,19.54-19.64
		c0-11.02-8.88-20.04-19.54-20.04c-10.46,0-19.34,9.02-19.34,20.04C754.727,142.76,763.607,151.78,774.067,151.78z"/>
</g>
</svg>
